# AST/ASF file generated using VICON BodyLanguage
# -----------------------------------------------
:version 1.10
:name VICON
:units
  mass 1.0
  length 0.45
  angle deg
:documentation
   .ast/.asf automatically generated from VICON data using
   VICON BodyBuilder and BodyLanguage model FoxedUp or BRILLIANT.MOD
:root
   order TX TY TZ RX RY RZ
   axis XYZ
   position 0 0 0  
   orientation 0 0 0 
:bonedata
  begin
     id 1 
     name lhipjoint
     direction 0.575328 -0.747301 0.332475 
     length 2.40933 
     axis 0 0 0  XYZ
  end
  begin
     id 2 
     name lfemur
     direction 0.34202 -0.939693 0  
     length 7.31453  
     axis 0 0 20  XYZ
    dof rx ry rz
    limits (-160.0 20.0)
           (-70.0 70.0)
           (-60.0 70.0)
  end
  begin
     id 3 
     name ltibia
     direction 0.34202 -0.939693 0   
     length 7.82185   
     axis 0 0 20   XYZ
    dof rx
    limits (-10.0 170.0)
  end
  begin
     id 4 
     name lfoot
     direction 0.0795993 -0.218697 0.972541   
     length 2.19173   
     axis -90 7.62852e-016 20   XYZ
    dof rx rz
    limits (-45.0 90.0)
           (-70.0 20.0)
  end
  begin
     id 5 
     name ltoes
     direction 1.53537e-011 -4.21894e-011 1   
     length 1.10023   
     axis -90 7.62852e-016 20   XYZ
    dof rx
    limits (-90.0 20.0)
  end
  begin
     id 6 
     name rhipjoint
     direction -0.513884 -0.783789 0.348708   
     length 2.29716  
     axis 0 0 0  XYZ 
  end
  begin
     id 7 
     name rfemur
     direction -0.34202 -0.939693 0   
     length 7.59573   
     axis 0 0 -20   XYZ
    dof rx ry rz
    limits (-160.0 20.0)
           (-70.0 70.0)
           (-70.0 60.0)
  end
  begin
     id 8 
     name rtibia
     direction -0.34202 -0.939693 0   
     length 7.66402   
     axis 0 0 -20   XYZ
    dof rx
    limits (-10.0 170.0)
 end
 begin
     id 9 
     name rfoot
     direction -0.137793 -0.378584 0.915253   
     length 2.27056  
     axis -90 -7.62852e-016 -20   XYZ
    dof rx rz
    limits (-45.0 90.0)
           (-20.0 70.0)
  end
  begin
     id 10 
     name rtoes
     direction -1.53493e-011 -4.22159e-011 1   
     length 1.11766   
     axis -90 -7.62852e-016 -20   XYZ
    dof rx
    limits (-90.0 20.0)
  end
  begin
     id 11 
     name lowerback
     direction -0.00732775 0.998356 -0.05685   
     length 2.16513   
     axis 0 0 0   XYZ
    dof rx ry rz
    limits (-20.0 45.0)
           (-30.0 30.0)
           (-30.0 30.0)
  end
  begin
     id 12 
     name upperback
     direction 0.0218081 0.999627 -0.0164647   
     length 2.16755   
     axis 0 0 0   XYZ
    dof rx ry rz
    limits (-20.0 45.0)
           (-30.0 30.0)
           (-30.0 30.0)
  end
  begin
     id 13 
     name thorax
     direction 0.02365 0.999661 0.0108914   
     length 2.16932   
     axis 0 0 0   XYZ
    dof rx ry rz
    limits (-20.0 45.0)
           (-30.0 30.0)
           (-30.0 30.0)
  end
  begin
     id 14 
     name lowerneck
     direction -0.0523929 0.978385 0.200044   
     length 1.63877   
     axis 0 0 0   XYZ
    dof rx ry rz
    limits (-20.0 45.0)
           (-30.0 30.0)
           (-30.0 30.0)
  end
  begin
     id 15 
     name upperneck
     direction 0.0448674 0.981321 -0.187074   
     length 1.69014   
     axis 0 0 0   XYZ
    dof rx ry rz
    limits (-20.0 45.0)
           (-30.0 30.0)
           (-30.0 30.0)
  end
  begin
     id 16
     name head
     direction 0.0199089 0.996118 -0.0857429  
     length 1.70094  
     axis 0 0 0   XYZ
    dof rx ry rz
    limits (-20.0 45.0)
           (-30.0 30.0)
           (-30.0 30.0)
  end
  begin
     id 17 
     name lclavicle
     direction 0.940366 0.30191 -0.156722  
     length 3.37521  
     axis 0 0 0   XYZ
    dof ry rz
    limits (-20.0 10.0)
           (0.0 20.0)
  end
  begin
     id 18 
     name lhumerus
     direction 1 -4.4897e-011 -1.7911e-027   
     length 5.25287   
     axis 180 -30 -90   XYZ
    dof rx ry rz
    limits (-60.0 90.0)
           (-90.0 90.0)
           (-90.0 90.0)
  end
  begin
     id 19
     name lradius
     direction 1 -4.48951e-011 1.04424e-027   
     length 3.51014   
     axis 180 -30 -90   XYZ
    dof rx
    limits (-10.0 170.0)
  end
  begin
     id 20
     name lwrist
     direction 1 -4.48997e-011 -9.5942e-028   
     length 1.75507   
     axis 8.48502e-016 90 90   XYZ
    dof ry
    limits (-180.0 0.0)
 end
  begin
     id 21 
     name lhand
     direction 1 -4.48831e-011 -1.90777e-027   
     length 0.706179   
     axis 1.22306e-015 90 90   XYZ
    dof rx rz
    limits (-90.0 90.0)
           (-45.0 45.0)
  end
  begin
     id 22 
     name lfingers
     direction 1 -4.49108e-011 -3.85244e-027   
     length 0.569339   
     axis 2.44611e-015 90 90   XYZ
    dof rx
    limits (0.0 90.0)
  end
  begin
     id 23
     name lthumb
     direction 0.707107 -6.34953e-011 0.707107   
     length 0.817461   
     axis -90 45 -1.62303e-014   XYZ
    dof rx rz
    limits (-45.0 45.0)
           (-45.0 45.0)
  end
  begin
     id 24 
     name rclavicle
     direction -0.905329 0.382405 -0.184787   
     length 3.30787  
     axis 0 0 0   XYZ 
    dof ry rz
    limits (-10.0 20.0)
           (-20.0 0.0)
  end
  begin
     id 25 
     name rhumerus
     direction -1 -4.48953e-011 -9.15316e-029  
     length 5.28721   
     axis 180 30 90   XYZ
    dof rx ry rz
    limits (-90.0 60.0)
           (-90.0 90.0)
           (-90.0 90.0)
  end
  begin
     id 26 
     name rradius
     direction -1 -4.48987e-011 9.37824e-028   
     length 3.50544   
     axis 180 30 90   XYZ
    dof rx
    limits (-10.0 170.0)
  end
  begin
     id 27 
     name rwrist
     direction -1 -4.48967e-011 -9.58414e-028   
     length 1.75272   
     axis 8.48502e-016 -90 -90   XYZ
    dof ry
    limits (-180.0 0.0)
  end
  begin
     id 28
     name rhand
     direction -1 -4.48904e-011 -1.91266e-027   
     length 0.884996   
     axis 1.22306e-015 -90 -90   XYZ
    dof rx rz
    limits (-90.0 90.0)
           (-45.0 45.0)
  end
  begin
     id 29
     name rfingers
     direction -1 -4.4909e-011 -3.85015e-027   
     length 0.713507   
     axis 2.44611e-015 -90 -90   XYZ
    dof rx
    limits (0.0 90.0)
  end
  begin
     id 30
     name rthumb
     direction -0.707107 -6.34853e-011 0.707107   
     length 1.02446   
     axis -90 -45 1.62303e-014   XYZ
    dof rx rz
    limits (-45.0 45.0)
           (-45.0 45.0)
  end
:hierarchy
  begin
    root lhipjoint rhipjoint lowerback
    lhipjoint lfemur
    lfemur ltibia
    ltibia lfoot
    lfoot ltoes
    rhipjoint rfemur
    rfemur rtibia
    rtibia rfoot
    rfoot rtoes
    lowerback upperback
    upperback thorax
    thorax lowerneck lclavicle rclavicle
    lowerneck upperneck
    upperneck head
    lclavicle lhumerus
    lhumerus lradius
    lradius lwrist
    lwrist lhand lthumb
    lhand lfingers
    rclavicle rhumerus
    rhumerus rradius
    rradius rwrist
    rwrist rhand rthumb
    rhand rfingers
  end

#!OML:ASF F:\twosubjects\two\Thursday\Session 1\justin.ASF
:FULLY-SPECIFIED
:DEGREES
1
root 7.37249 9.35835 -21.4334 -24.5388 -2.51121 0.357318
lowerback 37.443 1.53766 -1.59398
upperback 15.4674 1.42717 1.92631
thorax -1.59656 0.508135 2.37455
lowerneck -17.9476 -4.42871 -10.2177
upperneck 7.49642 -4.99328 11.7202
head 5.75363 -1.88772 4.91072
rclavicle -2.38542e-015 2.38542e-015
rhumerus 21.4018 36.7014 -71.0649
rradius 62.2822
rwrist 7.37511
rhand 10.9633 6.24418
rfingers 7.12502
rthumb 36.0394 -20.0626
lclavicle -2.38542e-015 2.38542e-015
lhumerus 24.1446 -39.121 70.631
lradius 59.2666
lwrist -40.8334
lhand 18.2408 32.0286
lfingers 7.12502
lthumb 42.8928 56.3123
rfemur -68.5058 -17.5986 7.48099
rtibia 87.139
rfoot 6.07037 4.41929
rtoes -8.72131
lfemur -67.73 18.342 -4.74503
ltibia 89.2497
lfoot 2.43311 -17.294
ltoes -6.47894
2
root 7.37131 9.3583 -21.4333 -24.5961 -2.51716 0.296015
lowerback 37.4997 1.50371 -1.56249
upperback 15.4815 1.39413 1.92667
thorax -1.59702 0.492589 2.36899
lowerneck -18.8464 -4.35601 -11.1496
upperneck 8.25056 -4.79177 12.818
head 6.17386 -1.70278 5.4623
rclavicle -3.97569e-015 7.95139e-015
rhumerus 21.2417 36.6973 -71.3037
rradius 62.1797
rwrist 7.91373
rhand 10.3882 6.42491
rfingers 7.12502
rthumb 35.4945 -20.0142
lclavicle -3.97569e-015 7.95139e-015
lhumerus 24.0287 -38.9205 70.7377
lradius 59.1231
lwrist -40.8438
lhand 18.5155 32.0812
lfingers 7.12502
lthumb 43.1498 56.274
rfemur -68.4156 -17.5858 7.53122
rtibia 87.0937
rfoot 6.10918 4.37206
rtoes -8.75885
lfemur -67.6469 18.3118 -4.66223
ltibia 89.2158
lfoot 2.57737 -17.2779
ltoes -5.84964
3
root 7.37017 9.36027 -21.4326 -24.6015 -2.52155 0.339231
lowerback 37.4361 1.49052 -1.61757
upperback 15.5284 1.35606 1.87321
thorax -1.52284 0.472245 2.3557
lowerneck -18.3821 -4.38866 -10.4334
upperneck 7.4213 -4.86094 11.8689
head 5.79548 -1.80642 5.00856
rclavicle 1.25234e-014 1.19271e-015
rhumerus 21.3581 36.7346 -71.3713
rradius 62.0212
rwrist 8.33516
rhand 10.7249 6.96744
rfingers 7.12502
rthumb 35.8135 -19.3947
lclavicle 1.25234e-014 1.19271e-015
lhumerus 23.9872 -38.753 70.7198
lradius 59.032
lwrist -40.8314
lhand 18.5045 32.7661
lfingers 7.12502
lthumb 43.1394 56.9626
rfemur -68.4123 -17.599 7.5077
rtibia 87.0668
rfoot 6.00265 4.46414
rtoes -8.91904
lfemur -67.6366 18.3481 -4.69098
ltibia 89.2337
lfoot 2.58049 -17.2611
ltoes -5.57828
4
root 7.36956 9.36258 -21.4342 -24.5638 -2.54343 0.337395
lowerback 37.3676 1.49785 -1.57658
upperback 15.5696 1.37762 1.83782
thorax -1.45516 0.486221 2.29136
lowerneck -18.4616 -4.44364 -10.2553
upperneck 7.13616 -4.9118 11.581
head 5.71019 -1.84675 4.87502
rclavicle -4.17448e-015 4.77083e-015
rhumerus 21.4504 36.6615 -71.3175
rradius 61.9926
rwrist 8.41396
rhand 11.3549 7.44973
rfingers 7.12502
rthumb 36.4103 -18.7649
lclavicle -4.17448e-015 4.77083e-015
lhumerus 24.1655 -38.7385 70.6552
lradius 58.8553
lwrist -40.6518
lhand 18.4482 33.4121
lfingers 7.12502
lthumb 43.0868 57.6273
rfemur -68.4597 -17.5692 7.52607
rtibia 87.0615
rfoot 5.9831 4.45115
rtoes -8.58612
lfemur -67.7073 18.428 -4.71703
ltibia 89.2474
lfoot 2.3568 -17.3072
ltoes -5.55588
5
root 7.36867 9.36225 -21.4371 -24.5651 -2.52348 0.400973
lowerback 37.3752 1.5346 -1.69002
upperback 15.5643 1.38552 1.84506
thorax -1.46581 0.483962 2.35537
lowerneck -18.5209 -4.45252 -10.3076
upperneck 6.97367 -4.88105 11.4871
head 5.66299 -1.83969 4.8546
rclavicle -6.16232e-015 -8.74653e-015
rhumerus 21.4844 36.7824 -71.1786
rradius 62.022
rwrist 8.3314
rhand 11.3514 7.22037
rfingers 7.12502
rthumb 36.407 -18.9951
lclavicle -6.16232e-015 -8.74653e-015
lhumerus 24.1975 -38.6141 70.7597
lradius 58.7226
lwrist -40.6097
lhand 18.862 33.4052
lfingers 7.12502
lthumb 43.4735 57.4817
rfemur -68.4764 -17.509 7.44313
rtibia 87.0567
rfoot 6.06991 4.34625
rtoes -8.13501
lfemur -67.7289 18.402 -4.7951
ltibia 89.2349
lfoot 2.22041 -17.3503
ltoes -5.196
6
root 7.36929 9.36087 -21.4386 -24.5978 -2.42657 0.540156
lowerback 37.3995 1.53381 -1.91258
upperback 15.533 1.30974 1.83844
thorax -1.50694 0.435665 2.48915
lowerneck -18.3281 -4.34811 -10.3261
upperneck 6.65091 -4.70354 11.2861
head 5.50417 -1.77639 4.80963
rclavicle -4.57205e-015 -1.98785e-015
rhumerus 21.4027 36.965 -71.1951
rradius 62.1492
rwrist 8.34728
rhand 11.9248 6.95223
rfingers 7.12502
rthumb 36.9496 -19.1253
lclavicle -4.57205e-015 -1.98785e-015
lhumerus 23.9216 -38.3625 70.9761
lradius 58.8181
lwrist -40.5771
lhand 19.1514 33.4857
lfingers 7.12502
lthumb 43.7437 57.4635
rfemur -68.4629 -17.5823 7.26887
rtibia 87.0431
rfoot 6.04641 4.35802
rtoes -8.35592
lfemur -67.6823 18.2561 -4.93605
ltibia 89.2093
lfoot 2.1932 -17.4133
ltoes -6.25588
7
root 7.37495 9.36204 -21.4374 -24.5664 -2.36303 0.477201
lowerback 37.3682 1.43026 -1.80008
upperback 15.5059 1.22017 1.82435
thorax -1.52019 0.398523 2.44548
lowerneck -18.2407 -4.28549 -10.4277
upperneck 6.31362 -4.57321 11.248
head 5.37097 -1.72307 4.82617
rclavicle 1.61016e-014 -1.98785e-015
rhumerus 21.2775 37.0167 -71.2795
rradius 62.2941
rwrist 8.34395
rhand 12.265 6.75638
rfingers 7.12502
rthumb 37.2713 -19.2375
lclavicle 1.61016e-014 -1.98785e-015
lhumerus 23.7258 -38.153 71.1626
lradius 58.909
lwrist -40.4439
lhand 19.7025 33.5542
lfingers 7.12502
lthumb 44.2578 57.3403
rfemur -68.4361 -17.6712 7.265
rtibia 87.0224
rfoot 5.97349 4.40774
rtoes -8.9959
lfemur -67.7414 18.1199 -4.92456
ltibia 89.2075
lfoot 2.27039 -17.4403
ltoes -7.03475
8
root 7.37729 9.36369 -21.4367 -24.557 -2.33871 0.471224
lowerback 37.3614 1.41356 -1.72445
upperback 15.5181 1.22421 1.79584
thorax -1.50295 0.406183 2.37497
lowerneck -18.3602 -4.36794 -10.6148
upperneck 6.14996 -4.63866 11.4319
head 5.35655 -1.74458 4.90881
rclavicle 7.55382e-015 -2.38542e-015
rhumerus 21.3197 37.0101 -71.2111
rradius 62.3104
rwrist 8.26368
rhand 11.9288 6.43708
rfingers 7.12502
rthumb 36.9534 -19.6394
lclavicle 7.55382e-015 -2.38542e-015
lhumerus 23.8054 -38.055 71.2073
lradius 58.8596
lwrist -40.3308
lhand 20.5677 33.2966
lfingers 7.12502
lthumb 45.0635 56.771
rfemur -68.4165 -17.6463 7.22218
rtibia 87.0451
rfoot 5.98731 4.42511
rtoes -9.36231
lfemur -67.7588 18.1179 -4.96491
ltibia 89.2085
lfoot 1.94374 -17.382
ltoes -7.37342
9
root 7.37258 9.36163 -21.4353 -24.6306 -2.33225 0.509745
lowerback 37.4892 1.47059 -1.78812
upperback 15.4973 1.27138 1.79019
thorax -1.56902 0.427292 2.38495
lowerneck -18.5072 -4.43742 -10.7909
upperneck 6.19952 -4.70097 11.609
head 5.41258 -1.76251 4.98921
rclavicle -9.93923e-016 -9.54166e-015
rhumerus 21.3546 37.0386 -71.1637
rradius 62.3117
rwrist 8.27877
rhand 11.9774 6.33111
rfingers 7.12502
rthumb 36.9993 -19.7335
lclavicle -9.93923e-016 -9.54166e-015
lhumerus 23.7519 -38.0501 71.2563
lradius 58.9091
lwrist -40.2169
lhand 21.1343 33.3494
lfingers 7.12502
lthumb 45.5902 56.6127
rfemur -68.3667 -17.6304 7.18659
rtibia 87.1036
rfoot 5.99622 4.43291
rtoes -9.17388
lfemur -67.6431 18.2441 -5.00414
ltibia 89.1898
lfoot 1.56221 -17.3835
ltoes -7.8716
10
root 7.37014 9.35765 -21.4315 -24.6377 -2.3997 0.35056
lowerback 37.6549 1.44308 -1.64502
upperback 15.342 1.2835 1.81636
thorax -1.64282 0.439248 2.33618
lowerneck -18.5129 -4.42179 -10.8967
upperneck 6.14971 -4.64997 11.6093
head 5.39426 -1.74051 5.01207
rclavicle 3.97569e-016 -8.34896e-015
rhumerus 21.2732 37.0482 -71.2702
rradius 62.334
rwrist 8.61565
rhand 12.2812 6.44766
rfingers 7.12502
rthumb 37.2867 -19.5421
lclavicle 3.97569e-016 -8.34896e-015
lhumerus 23.4976 -37.953 71.4899
lradius 58.9922
lwrist -40.3034
lhand 21.8619 33.5463
lfingers 7.12502
lthumb 46.2655 56.5295
rfemur -68.3658 -17.6209 7.37774
rtibia 87.1355
rfoot 5.92447 4.39196
rtoes -8.89699
lfemur -67.6632 18.4042 -4.83639
ltibia 89.1967
lfoot 1.54882 -17.4655
ltoes -7.85386
11
root 7.37168 9.35721 -21.4307 -24.5819 -2.40845 0.25152
lowerback 37.4357 1.40363 -1.50999
upperback 15.5114 1.28427 1.82574
thorax -1.53465 0.4456 2.2735
lowerneck -18.5847 -4.44599 -10.9375
upperneck 5.9201 -4.64581 11.586
head 5.33348 -1.74024 5.00972
rclavicle 4.37326e-015 7.95139e-016
rhumerus 21.3722 36.989 -71.2031
rradius 62.3153
rwrist 8.83788
rhand 12.1668 6.55426
rfingers 7.12502
rthumb 37.1785 -19.4639
lclavicle 4.37326e-015 7.95139e-016
lhumerus 23.5016 -37.7669 71.6746
lradius 58.9774
lwrist -40.3939
lhand 22.2932 33.7272
lfingers 7.12502
lthumb 46.6651 56.5395
rfemur -68.4028 -17.5921 7.46245
rtibia 87.1375
rfoot 5.80623 4.29162
rtoes -8.90934
lfemur -67.7685 18.3991 -4.7557
ltibia 89.2042
lfoot 1.61136 -17.503
ltoes -7.48766
